# xmcd
#
# Track frame offsets: 
#        150
#        15049
#        31109
#        46517
#        63322
#        79590
#        92007
#        107027
#        120873
#        135933
#        151248
#        167527
#
# Disc length: 2450 seconds
#
# Revision: 0
# Processed by: cddbd v1.5.2PL0 Copyright (c) Steve Scherf et al.
# Submitted via: ExactAudioCopy v0.99pb4
#
DISCID=6e09900c
DTITLE=Jintara Poonlab - Sanuk Sanan
DYEAR=2002
DGENRE=Thai
TTITLE0=Gord mon kang
TTITLE1=Tang moh Jintara
TTITLE2=Pee jah gla gla noi
TTITLE3=Mor-chit song nong koi
TTITLE4=Kawa namta rin
TTITLE5=Dum nok lhog da
TTITLE6=Jintara song jai
TTITLE7=Pua krai teh jung
TTITLE8=Gang geng jean haeng kwam lhung
TTITLE9=Pee marn larn kai tape
TTITLE10=Khon jai bor tung
TTITLE11=Mun mee tao nee
EXTD=
EXTT0=
EXTT1=
EXTT2=
EXTT3=
EXTT4=
EXTT5=
EXTT6=
EXTT7=
EXTT8=
EXTT9=
EXTT10=
EXTT11=
PLAYORDER=
